<svg width="1200" height="900" viewBox="0 0 1200 900" fill="none" xmlns="http://www.w3.org/2000/svg">
  <rect width="1200" height="900" rx="56" fill="#F7EFE5"/>
  <rect x="34" y="34" width="1132" height="832" rx="42" fill="#FFFDF9" stroke="#1B1C1A" stroke-width="4"/>

  <rect x="86" y="92" width="226" height="50" rx="25" fill="white" stroke="#1B1C1A" stroke-width="3"/>
  <circle cx="112" cy="117" r="7" fill="#FF5A1F"/>
  <text x="132" y="124" fill="#1B1C1A" font-family="Arial, sans-serif" font-size="22" font-weight="800" letter-spacing="3">MARKETING</text>
  <rect x="896" y="92" width="218" height="50" rx="25" fill="#1B1C1A"/>
  <text x="944" y="124" fill="white" font-family="Arial, sans-serif" font-size="20" font-weight="800" letter-spacing="2">WORKSPACE</text>

  <rect x="96" y="188" width="1008" height="600" rx="34" fill="#F3E9DB" stroke="#1B1C1A" stroke-width="4"/>

  <rect x="136" y="242" width="248" height="300" rx="26" fill="white" stroke="#1B1C1A" stroke-width="4"/>
  <rect x="136" y="242" width="248" height="70" rx="26" fill="#1B1C1A"/>
  <text x="168" y="286" fill="white" font-family="Arial, sans-serif" font-size="22" font-weight="800">Offer</text>
  <rect x="166" y="346" width="188" height="74" rx="20" fill="#FFF7F2" stroke="#1B1C1A" stroke-width="2"/>
  <rect x="188" y="372" width="66" height="18" rx="9" fill="#FF5A1F"/>
  <rect x="166" y="446" width="108" height="44" rx="16" fill="#FF5A1F"/>
  <text x="198" y="474" fill="white" font-family="Arial, sans-serif" font-size="18" font-weight="800">Proof</text>
  <rect x="286" y="446" width="68" height="44" rx="16" fill="#F0EEE8" stroke="#1B1C1A" stroke-width="2"/>
  <text x="305" y="474" fill="#1B1C1A" font-family="Arial, sans-serif" font-size="18" font-weight="800">CTA</text>

  <rect x="430" y="220" width="344" height="510" rx="30" fill="white" stroke="#1B1C1A" stroke-width="4"/>
  <rect x="430" y="220" width="344" height="76" rx="30" fill="#FF5A1F"/>
  <text x="464" y="268" fill="white" font-family="Arial, sans-serif" font-size="24" font-weight="800">Email sequence</text>
  <rect x="464" y="332" width="276" height="54" rx="18" fill="#F0EEE8"/>
  <text x="488" y="365" fill="#1B1C1A" font-family="Arial, sans-serif" font-size="18" font-weight="800">Subject</text>
  <text x="572" y="365" fill="#5B5E57" font-family="Arial, sans-serif" font-size="18" font-weight="700">Worth 14 seconds?</text>
  <rect x="464" y="410" width="276" height="192" rx="22" fill="#FFF7F2" stroke="#1B1C1A" stroke-width="2"/>
  <rect x="492" y="448" width="94" height="16" rx="8" fill="#1B1C1A"/>
  <rect x="492" y="482" width="196" height="12" rx="6" fill="#C9C5BE"/>
  <rect x="492" y="508" width="170" height="12" rx="6" fill="#C9C5BE"/>
  <rect x="492" y="534" width="204" height="12" rx="6" fill="#C9C5BE"/>
  <rect x="492" y="560" width="154" height="12" rx="6" fill="#C9C5BE"/>
  <rect x="464" y="626" width="88" height="44" rx="16" fill="#1B1C1A"/>
  <text x="492" y="654" fill="white" font-family="Arial, sans-serif" font-size="18" font-weight="800">Send</text>

  <rect x="818" y="242" width="248" height="176" rx="26" fill="#1B1C1A"/>
  <text x="846" y="286" fill="white" font-family="Arial, sans-serif" font-size="22" font-weight="800">Channels</text>
  <rect x="846" y="322" width="80" height="40" rx="14" fill="white"/>
  <text x="870" y="348" fill="#1B1C1A" font-family="Arial, sans-serif" font-size="16" font-weight="800">Email</text>
  <rect x="938" y="322" width="106" height="40" rx="14" fill="#FFF7F2"/>
  <text x="966" y="348" fill="#1B1C1A" font-family="Arial, sans-serif" font-size="16" font-weight="800">LinkedIn</text>
  <rect x="846" y="378" width="126" height="40" rx="14" fill="#FF5A1F"/>
  <text x="872" y="404" fill="white" font-family="Arial, sans-serif" font-size="16" font-weight="800">Objections</text>

  <rect x="818" y="442" width="248" height="128" rx="26" fill="white" stroke="#1B1C1A" stroke-width="3"/>
  <text x="846" y="486" fill="#1B1C1A" font-family="Arial, sans-serif" font-size="22" font-weight="800">Reply angles</text>
  <rect x="846" y="522" width="188" height="12" rx="6" fill="#C9C5BE"/>
  <rect x="846" y="548" width="160" height="12" rx="6" fill="#C9C5BE"/>

  <rect x="818" y="594" width="248" height="128" rx="26" fill="#F0EEE8" stroke="#1B1C1A" stroke-width="3"/>
  <text x="846" y="638" fill="#1B1C1A" font-family="Arial, sans-serif" font-size="22" font-weight="800">Export</text>
  <rect x="846" y="670" width="120" height="16" rx="8" fill="#FF5A1F"/>
  <rect x="980" y="670" width="54" height="16" rx="8" fill="#1B1C1A"/>
</svg>
