<svg width="1200" height="900" viewBox="0 0 1200 900" fill="none" xmlns="http://www.w3.org/2000/svg">
  <rect width="1200" height="900" rx="56" fill="#F7EFE5"/>
  <rect x="34" y="34" width="1132" height="832" rx="44" fill="url(#bg)" stroke="#1B1C1A" stroke-width="4"/>
  <circle cx="1030" cy="190" r="128" fill="#FF5A1F" fill-opacity="0.15"/>
  <circle cx="920" cy="730" r="96" fill="#101828" fill-opacity="0.08"/>
  <rect x="72" y="76" width="214" height="58" rx="29" fill="white" fill-opacity="0.94" stroke="#1B1C1A" stroke-width="3"/>
  <circle cx="107" cy="105" r="8" fill="#FF5A1F"/>
  <text x="128" y="114" fill="#1B1C1A" font-family="Arial, sans-serif" font-size="28" font-weight="800" letter-spacing="3.6">STRATEGY</text>
  <rect x="882" y="76" width="252" height="58" rx="29" fill="#1B1C1A" fill-opacity="0.78"/>
  <text x="926" y="113" fill="white" font-family="Arial, sans-serif" font-size="26" font-weight="800" letter-spacing="2.2">FOUNDER TOOL</text>

  <g filter="url(#shadow)">
    <rect x="90" y="190" width="420" height="520" rx="36" fill="white" stroke="#1B1C1A" stroke-width="4"/>
    <text x="132" y="286" fill="#1B1C1A" font-family="Arial, sans-serif" font-size="36" font-weight="800" letter-spacing="1.4">Idea worth building?</text>
    <text x="132" y="340" fill="#1B1C1A" fill-opacity="0.66" font-family="Arial, sans-serif" font-size="26" font-weight="600">Pressure-test the wedge, pricing, proof,</text>
    <text x="132" y="378" fill="#1B1C1A" fill-opacity="0.66" font-family="Arial, sans-serif" font-size="26" font-weight="600">and the first version before you code.</text>

    <rect x="130" y="436" width="162" height="60" rx="24" fill="#FF5A1F"/>
    <text x="164" y="474" fill="white" font-family="Arial, sans-serif" font-size="28" font-weight="800">MVP scope</text>
    <rect x="310" y="436" width="150" height="60" rx="24" fill="#FFF5EC" stroke="#1B1C1A" stroke-width="2"/>
    <text x="339" y="474" fill="#1B1C1A" font-family="Arial, sans-serif" font-size="26" font-weight="700">Pricing</text>

    <rect x="130" y="522" width="132" height="56" rx="22" fill="#101828" fill-opacity="0.08"/>
    <text x="163" y="557" fill="#1B1C1A" font-family="Arial, sans-serif" font-size="24" font-weight="700">ICP</text>
    <rect x="280" y="522" width="170" height="56" rx="22" fill="#101828" fill-opacity="0.08"/>
    <text x="320" y="557" fill="#1B1C1A" font-family="Arial, sans-serif" font-size="24" font-weight="700">Go-to-market</text>

    <rect x="130" y="618" width="328" height="10" rx="5" fill="#101828" fill-opacity="0.10"/>
    <rect x="130" y="650" width="242" height="10" rx="5" fill="#101828" fill-opacity="0.10"/>
  </g>

  <g transform="translate(540 160)">
    <rect x="64" y="94" width="542" height="520" rx="42" fill="white" fill-opacity="0.64"/>
    <image href="../../hero.png" x="40" y="0" width="620" height="620" preserveAspectRatio="xMidYMid meet"/>
  </g>

  <g filter="url(#shadow)">
    <rect x="684" y="594" width="360" height="132" rx="28" fill="#FFF8F2" stroke="#1B1C1A" stroke-width="3"/>
    <text x="720" y="646" fill="#1B1C1A" font-family="Arial, sans-serif" font-size="24" font-weight="800" letter-spacing="2">WHAT YOU LEAVE WITH</text>
    <text x="720" y="690" fill="#1B1C1A" fill-opacity="0.72" font-family="Arial, sans-serif" font-size="28" font-weight="700">A sharper founder spec and</text>
    <text x="720" y="726" fill="#1B1C1A" fill-opacity="0.72" font-family="Arial, sans-serif" font-size="28" font-weight="700">a smaller, clearer v1.</text>
  </g>

  <defs>
    <linearGradient id="bg" x1="120" y1="72" x2="1124" y2="846" gradientUnits="userSpaceOnUse">
      <stop stop-color="#FFFDF9"/>
      <stop offset="1" stop-color="#F4E7D9"/>
    </linearGradient>
    <filter id="shadow" x="82" y="182" width="970" height="552" filterUnits="userSpaceOnUse" color-interpolation-filters="sRGB">
      <feDropShadow dx="12" dy="12" stdDeviation="0" flood-color="#1B1C1A"/>
    </filter>
  </defs>
</svg>
