<svg width="1200" height="900" viewBox="0 0 1200 900" fill="none" xmlns="http://www.w3.org/2000/svg">
  <rect width="1200" height="900" rx="56" fill="#F7EFE5"/>
  <rect x="34" y="34" width="1132" height="832" rx="42" fill="#FFFDF9" stroke="#1B1C1A" stroke-width="4"/>

  <rect x="86" y="92" width="196" height="50" rx="25" fill="white" stroke="#1B1C1A" stroke-width="3"/>
  <circle cx="112" cy="117" r="7" fill="#FF5A1F"/>
  <text x="132" y="124" fill="#1B1C1A" font-family="Arial, sans-serif" font-size="22" font-weight="800" letter-spacing="3">STRATEGY</text>
  <rect x="930" y="92" width="184" height="50" rx="25" fill="#1B1C1A"/>
  <text x="976" y="124" fill="white" font-family="Arial, sans-serif" font-size="20" font-weight="800" letter-spacing="2">COPILOT</text>

  <rect x="96" y="188" width="1008" height="600" rx="34" fill="#F3E9DB" stroke="#1B1C1A" stroke-width="4"/>

  <rect x="154" y="236" width="620" height="406" rx="28" fill="white" stroke="#1B1C1A" stroke-width="4"/>
  <rect x="154" y="236" width="620" height="74" rx="28" fill="#1B1C1A"/>
  <circle cx="188" cy="272" r="8" fill="#FF5A1F"/>
  <circle cx="216" cy="272" r="8" fill="#FFD4C3"/>
  <circle cx="244" cy="272" r="8" fill="#FFF7F2"/>

  <rect x="224" y="360" width="300" height="178" rx="18" fill="#FFF7F2" stroke="#1B1C1A" stroke-width="3"/>
  <line x1="244" y1="488" x2="382" y2="426" stroke="#1B1C1A" stroke-width="6" stroke-linecap="round"/>
  <line x1="382" y1="426" x2="454" y2="456" stroke="#FF5A1F" stroke-width="6" stroke-linecap="round"/>
  <line x1="454" y1="456" x2="498" y2="394" stroke="#1B1C1A" stroke-width="6" stroke-linecap="round"/>
  <path d="M488 392L512 394L502 370" stroke="#1B1C1A" stroke-width="6" stroke-linecap="round" stroke-linejoin="round"/>
  <rect x="246" y="514" width="96" height="14" rx="7" fill="#1B1C1A"/>
  <rect x="356" y="514" width="88" height="14" rx="7" fill="#FF5A1F"/>

  <rect x="560" y="346" width="162" height="112" rx="18" fill="#FF5A1F"/>
  <text x="590" y="388" fill="white" font-family="Arial, sans-serif" font-size="22" font-weight="800">MVP</text>
  <text x="590" y="422" fill="white" font-family="Arial, sans-serif" font-size="18" font-weight="700">scope</text>
  <rect x="560" y="476" width="162" height="112" rx="18" fill="#F0EEE8" stroke="#1B1C1A" stroke-width="3"/>
  <text x="590" y="518" fill="#1B1C1A" font-family="Arial, sans-serif" font-size="22" font-weight="800">Pricing</text>
  <text x="590" y="552" fill="#5B5E57" font-family="Arial, sans-serif" font-size="18" font-weight="700">logic</text>

  <rect x="198" y="666" width="124" height="52" rx="18" fill="white" stroke="#1B1C1A" stroke-width="3"/>
  <text x="241" y="699" fill="#1B1C1A" font-family="Arial, sans-serif" font-size="20" font-weight="800">ICP</text>
  <rect x="338" y="666" width="168" height="52" rx="18" fill="white" stroke="#1B1C1A" stroke-width="3"/>
  <text x="384" y="699" fill="#1B1C1A" font-family="Arial, sans-serif" font-size="20" font-weight="800">Scope</text>
  <rect x="522" y="666" width="180" height="52" rx="18" fill="white" stroke="#1B1C1A" stroke-width="3"/>
  <text x="580" y="699" fill="#1B1C1A" font-family="Arial, sans-serif" font-size="20" font-weight="800">GTM</text>

  <rect x="820" y="236" width="218" height="172" rx="24" fill="#1B1C1A"/>
  <text x="848" y="282" fill="white" font-family="Arial, sans-serif" font-size="22" font-weight="800">Questions</text>
  <rect x="848" y="316" width="142" height="12" rx="6" fill="#FF5A1F"/>
  <rect x="848" y="342" width="120" height="12" rx="6" fill="#D0D3E4"/>
  <rect x="848" y="368" width="154" height="12" rx="6" fill="#D0D3E4"/>

  <rect x="820" y="430" width="218" height="136" rx="24" fill="#FFF7F2" stroke="#1B1C1A" stroke-width="3"/>
  <text x="848" y="474" fill="#1B1C1A" font-family="Arial, sans-serif" font-size="22" font-weight="800">Decision</text>
  <text x="848" y="510" fill="#5B5E57" font-family="Arial, sans-serif" font-size="18" font-weight="700">Build the smallest</text>
  <text x="848" y="538" fill="#5B5E57" font-family="Arial, sans-serif" font-size="18" font-weight="700">founder workflow first.</text>

  <rect x="820" y="588" width="218" height="136" rx="24" fill="#FF5A1F"/>
  <text x="848" y="632" fill="white" font-family="Arial, sans-serif" font-size="22" font-weight="800">Next 30 days</text>
  <text x="848" y="668" fill="white" font-family="Arial, sans-serif" font-size="18" font-weight="700">Talk to founders</text>
  <text x="848" y="696" fill="white" font-family="Arial, sans-serif" font-size="18" font-weight="700">Narrow the wedge</text>
</svg>
